<svg width="512" height="512" viewBox="0 0 512 512" fill="none" xmlns="http://www.w3.org/2000/svg">
<rect width="512" height="512" rx="95" fill="url(#paint0_linear_1202_3)"/>
<g clip-path="url(#clip0_1202_3)">
<path d="M404.12 341.418C406.513 337.273 408 332.602 408 328.408V182.816C408 178.622 406.515 173.952 404.121 169.807L255.5 255.612L404.12 341.418Z" fill="#4D9943"/>
<path d="M268.706 424.078L394.793 351.283C398.425 349.185 401.726 345.564 404.119 341.418L255.5 255.612L106.88 341.419C109.273 345.564 112.575 349.186 116.206 351.283L242.293 424.078C249.556 428.272 261.443 428.272 268.706 424.078Z" fill="#3F873F"/>
<path d="M404.121 169.806C401.727 165.659 398.424 162.038 394.793 159.941L268.707 87.1457C261.444 82.9514 249.557 82.9514 242.293 87.1457L116.207 159.941C108.943 164.134 103 174.429 103 182.816V328.408C103 332.602 104.486 337.273 106.88 341.418L255.5 255.612L404.121 169.806Z" fill="#69BE4B"/>
<path d="M255.5 357.279C199.44 357.279 153.833 311.672 153.833 255.612C153.833 199.553 199.44 153.946 255.5 153.946C291.673 153.946 325.409 173.412 343.542 204.747L299.543 230.208C290.468 214.523 273.59 204.779 255.5 204.779C227.47 204.779 204.666 227.582 204.666 255.612C204.666 283.642 227.47 306.446 255.5 306.446C273.592 306.446 290.47 296.702 299.546 281.014L343.545 306.474C325.412 337.812 291.675 357.279 255.5 357.279Z" fill="white"/>
<path d="M357.166 249.964H345.869V238.668H334.574V249.964H323.277V261.26H334.574V272.557H345.869V261.26H357.166V249.964Z" fill="white"/>
<path d="M399.528 249.964H388.231V238.668H376.936V249.964H365.639V261.26H376.936V272.557H388.231V261.26H399.528V249.964Z" fill="white"/>
</g>
<defs>
<linearGradient id="paint0_linear_1202_3" x1="256" y1="0" x2="6.52672e-06" y2="486.5" gradientUnits="userSpaceOnUse">
<stop offset="0.01627" stop-color="#004482"/>
<stop offset="1" stop-color="#68BD4A"/>
</linearGradient>
<clipPath id="clip0_1202_3">
<rect width="305" height="343.225" fill="white" transform="translate(103 84)"/>
</clipPath>
</defs>
</svg>
